<svg width="1024" height="130" viewBox="0 0 1024 130" fill="none" xmlns="http://www.w3.org/2000/svg">
<path d="M186.809 58.9293H155.22C153.571 58.9293 152.207 60.2614 152.207 61.9423V82.9069C152.207 90.6458 145.927 96.9256 138.188 96.9256L36.6007 96.9891C35.9981 96.9891 35.5223 96.5133 35.5223 95.9107V46.2427C35.5223 38.5038 41.8022 32.224 49.541 32.224H144.309C145.959 32.224 147.323 30.8919 147.323 29.2109V3.01307C147.323 1.36381 145.99 0 144.309 0H88.3618C84.6827 0 81.0353 0.380598 77.4831 1.14179C68.7294 2.98135 60.5465 6.97763 53.6958 12.8769L14.6847 46.5598C5.36007 54.6158 0 66.3192 0 78.6252V125.122C0 126.771 1.33209 128.135 3.01305 128.135H103.364C136.031 127.786 181.64 80.6551 189.569 63.1793C190.457 61.1811 189.03 58.9293 186.809 58.9293Z" fill="white"/>
<path d="M281.648 103.009C274.289 109.892 267.629 114.142 257.131 114.142C241.178 114.142 229.157 101.138 229.157 83.9161V83.6624C229.157 66.5672 241.178 53.6903 257.131 53.6903C265.726 53.6903 273.116 56.9571 281.013 64.3153L281.679 64.9179L292.685 52.263L292.082 51.6921C284.914 44.8414 275.178 37.832 257.258 37.832C231.06 37.832 211.301 57.6548 211.301 83.9161V84.1698C211.301 110.304 230.775 130 256.623 130C275.082 130 285.232 122.039 292.717 114.237L293.288 113.634L282.25 102.439L281.648 103.009Z" fill="white"/>
<path d="M336.196 38.7188L296.963 128.508H314.597L323.605 107.417H363.789L372.67 128.508H390.812L351.578 38.7188H336.196ZM357.414 92.0342H329.948L343.618 60.1274L357.414 92.0342Z" fill="white"/>
<path d="M472.949 68.0589V67.8052C472.949 60.0981 470.349 53.3742 465.433 48.3312C459.407 42.4637 450.494 39.3555 439.584 39.3555H399.748V128.511H416.843V98.031H434.763L455.981 128.13L456.235 128.511H476.47L452.587 95.0179C465.718 90.8631 472.918 81.3164 472.918 68.0589H472.949ZM416.875 55.0551H438.379C449.511 55.0551 455.632 59.876 455.632 68.6615V68.9152C455.632 77.2567 448.908 82.6485 438.505 82.6485H416.907V55.0234L416.875 55.0551Z" fill="white"/>
<path d="M553.787 39.3555H481.125V55.3406H508.845V128.542H526.067V55.3406H553.787V39.3555Z" fill="white"/>
<path d="M597.539 38.7188H582.157L542.924 128.508H560.558L569.566 107.417H609.75L618.631 128.508H636.773L597.539 38.7188ZM603.407 92.0342H575.941L589.61 60.1274L603.407 92.0342Z" fill="white"/>
<path d="M678.473 128.414V115.252L731.154 53.9441H680.058V39.418H752.055V52.612L699.374 113.888H752.055V128.414H678.473Z" fill="white"/>
<path d="M765.98 128.414V39.418H832.299V54.1979H782.885V76.2091H826.368V90.989H782.885V113.635H832.965V128.414H765.98Z" fill="white"/>
<path d="M902.543 128.414L882.784 98.8864H864.325V128.414H847.293V39.418H887.826C898.864 39.418 907.744 42.4945 913.548 48.2986C918.401 53.1512 920.97 60.0654 920.97 68.2166C920.97 85.1215 910.789 92.3845 902.257 95.5562L900.291 96.2857L922.27 128.414H902.511H902.543ZM864.325 84.2334H886.526C896.961 84.2334 903.716 78.461 903.716 69.5486C903.716 59.8751 897.31 54.4516 886.114 54.4516H864.293V84.2334H864.325Z" fill="white"/>
<path d="M976.261 130C949.302 130 929.004 110.304 929.004 84.1698C929.004 58.0354 949.873 37.832 976.547 37.832C1003.22 37.832 1023.8 57.528 1023.8 83.6624C1023.8 109.797 1002.93 130 976.261 130ZM976.261 53.278C959.547 53.278 946.955 66.3452 946.955 83.6624C946.955 100.98 959.959 114.554 976.547 114.554C993.134 114.554 1005.85 101.487 1005.85 84.1698C1005.85 66.8526 992.849 53.278 976.261 53.278Z" fill="white"/>
</svg>
